<svg xmlns="http://www.w3.org/2000/svg" width="16" height="16" viewBox="0 0 16 16" version="1.1"><path d="M 5.592 2.500 C 4.691 3.875, 3.064 5, 1.977 5 C -0.075 5, -0.750 7.418, 1 8.500 C 1.550 8.840, 2 10.719, 2 12.676 C 2 15.910, 2.205 16.168, 4.250 15.520 C 7.089 14.619, 8.911 14.619, 11.750 15.520 C 13.790 16.167, 14 15.907, 14 12.739 C 14 10.817, 14.675 8.685, 15.500 8 C 17.851 6.049, 17.338 4.213, 14.588 4.738 C 12.798 5.081, 11.738 4.530, 10.473 2.600 C 8.356 -0.632, 7.653 -0.646, 5.592 2.500 M 5.638 3.619 C 4.411 5.302, 3.131 6.006, 1.888 5.681 C -0.372 5.090, -0.722 7.509, 1.500 8.362 C 2.392 8.704, 3 10.208, 3 12.076 C 3 14.684, 3.295 15.087, 4.750 14.462 C 6.971 13.509, 9.029 13.509, 11.250 14.462 C 12.698 15.084, 13 14.688, 13 12.166 C 13 10.490, 13.450 8.840, 14 8.500 C 15.482 7.584, 15.212 6, 13.573 6 C 12.787 6, 11.260 4.875, 10.179 3.500 C 9.097 2.125, 8.052 1.014, 7.856 1.031 C 7.660 1.049, 6.662 2.213, 5.638 3.619" stroke="none" fill="#312e16" fill-rule="evenodd"/><path d="M 7 2.059 C 7 2.641, 6.539 2.833, 5.975 2.485 C 5.412 2.136, 5.074 2.431, 5.225 3.139 C 5.376 3.847, 4.488 4.887, 3.250 5.451 C 0.818 6.557, 0.421 7.524, 2 8.500 C 2.550 8.840, 3 10.490, 3 12.166 C 3 14.688, 3.302 15.084, 4.750 14.462 C 6.971 13.509, 9.029 13.509, 11.250 14.462 C 12.698 15.084, 13 14.688, 13 12.166 C 13 10.490, 13.450 8.840, 14 8.500 C 15.579 7.524, 15.182 6.557, 12.750 5.451 C 11.512 4.887, 10.624 3.847, 10.775 3.139 C 10.926 2.431, 10.588 2.136, 10.025 2.485 C 9.461 2.833, 9 2.641, 9 2.059 C 9 1.477, 8.550 1, 8 1 C 7.450 1, 7 1.477, 7 2.059" stroke="none" fill="#edd55a" fill-rule="evenodd"/></svg>