<!DOCTYPE svg PUBLIC "-//W3C//DTD SVG 1.1//EN" "http://www.w3.org/Graphics/SVG/1.1/DTD/svg11.dtd">
<!-- Uploaded to: SVG Repo, www.svgrepo.com, Transformed by: SVG Repo Mixer Tools -->
<svg height="800px" width="800px" version="1.1" id="Layer_1" xmlns="http://www.w3.org/2000/svg" xmlns:xlink="http://www.w3.org/1999/xlink" viewBox="0 0 503.596 503.596" xml:space="preserve" fill="#000000">
<g id="SVGRepo_bgCarrier" stroke-width="0"/>
<g id="SVGRepo_tracerCarrier" stroke-linecap="round" stroke-linejoin="round"/>
<g id="SVGRepo_iconCarrier"> <g transform="translate(1 1)"> <path style="fill:#AAB1BA;" d="M277.688,252.57L277.688,252.57v126.293h34.133V234.65v-0.853L277.688,252.57z M77.155,265.37 l25.6,44.373l-64,36.693l-25.6-44.373L77.155,265.37z"/> <path style="fill:#FFC26E;" d="M76.301,86.17c0,0,17.067,5.12,40.96,3.413c-5.12,10.24-12.8,18.773-23.04,24.747 c-29.013,16.213-64.853,6.827-81.92-22.187c-16.213-28.16-6.827-64.853,22.187-81.92c10.24-5.973,21.333-8.533,33.28-7.68 c-17.92,16.213-23.04,42.667-10.24,64C61.795,75.93,68.621,81.903,76.301,86.17"/> <g> <path style="fill:#80D6FA;" d="M449.208,158.703l-138.24,75.093l-34.133,18.773l-142.507,77.653 c-8.533,4.267-18.773,1.707-23.04-5.973l-8.533-14.507l-25.6-44.373l-8.533-14.507c-5.12-8.533-1.707-18.773,5.973-23.04 l304.64-186.88l0.853-0.853L449.208,158.703L449.208,158.703z"/> <path style="fill:#80D6FA;" d="M497.848,140.783c2.56,4.267,0.853,9.387-3.413,11.947l-29.867,17.067 c-4.267,2.56-9.387,0.853-11.947-3.413l-4.267-7.68l0,0L380.088,40.09l-3.413-5.973c-2.56-4.267-0.853-9.387,3.413-11.947 l29.867-17.067c4.267-2.56,9.387-0.853,11.947,3.413L497.848,140.783z"/> </g> </g> <path style="fill:#51565F;" d="M381.088,503.596c-1.707,0-2.56-0.853-3.413-2.56L309.408,381.57c0-0.853-0.853-1.707-0.853-1.707 V273.196c0-2.56,1.707-4.267,4.267-4.267s4.267,1.707,4.267,4.267v104.96l67.413,118.613c0.853,1.707,0.853,4.267-1.707,5.973 C382.795,503.596,381.942,503.596,381.088,503.596z M210.421,503.596c-0.853,0-1.707,0-1.707-0.853 c-1.707-0.853-2.56-3.413-1.707-5.973l67.413-118.613v-87.893c0-2.56,1.707-4.267,4.267-4.267s4.267,1.707,4.267,4.267v89.6 c0,0.853,0,1.707-0.853,1.707l-68.267,119.467C212.982,502.743,212.128,503.596,210.421,503.596z M295.755,486.53 c-2.56,0-4.267-1.707-4.267-4.267v-68.267c0-2.56,1.707-4.267,4.267-4.267s4.267,1.707,4.267,4.267v68.267 C300.021,484.823,298.315,486.53,295.755,486.53z M48.288,367.063c-1.707,0-2.56-0.853-3.413-2.56l-34.133-58.88l0,0l0,0 l-8.533-14.507c-0.853-1.707-0.853-4.267,1.707-5.973c1.707-0.853,4.267-0.853,5.973,1.707l5.973,11.093l57.173-32.427 l-6.827-11.093c-5.973-10.24-2.56-23.04,7.68-29.013l276.48-169.813c1.707-0.853,4.267-0.853,5.973,1.707 c0.853,1.707,0.853,4.267-1.707,5.973L78.155,233.09c-5.973,3.413-8.533,11.093-5.12,17.92l34.133,58.88l0,0l0,0l8.533,14.507 c3.413,5.973,11.093,8.533,17.067,4.267l314.88-171.52c0.853,0,0.853,0,1.707-0.853l0,0l0,0c0.853,0,0.853,0,1.707,0l0,0l0,0l0,0 l0,0l0,0l0,0l0,0l0,0l0,0l0,0l0,0c0.853,0,0.853,0.853,1.707,0.853l0,0l0,0l0,0l0,0l0.853,0.853l4.267,7.68 c0.853,1.707,3.413,2.56,5.973,1.707l29.867-17.067c0.853-0.853,1.707-1.707,1.707-2.56c0-0.853,0-2.56,0-3.413l-76.8-133.12 c-0.853-1.707-3.413-2.56-5.973-1.707l-29.867,17.067c-1.707,0.853-2.56,3.413-1.707,5.973l55.467,96.427 c0.853,1.707,0.853,4.267-1.707,5.973c-1.707,0.853-4.267,0.853-5.973-1.707l-55.467-96.427c-3.413-5.973-1.707-13.653,4.267-17.067 L407.542,2.69c5.973-3.413,13.653-1.707,17.067,4.267l76.8,133.12c1.707,2.56,2.56,6.827,0.853,9.387 c-0.853,3.413-3.413,5.973-5.973,7.68l-29.867,17.067c-5.973,3.413-13.653,1.707-17.067-4.267l-2.56-3.413L136.182,336.344 c-10.24,5.973-23.04,2.56-29.013-7.68l-6.827-11.093l-57.173,32.427l6.827,11.093C50.849,362.797,50.849,365.357,48.288,367.063 C49.995,366.21,49.142,367.063,48.288,367.063z M20.128,304.77l21.333,36.693l57.173-32.427l-21.333-36.693L20.128,304.77z M202.742,195.543c-1.707,0-2.56-0.853-3.413-1.707c-1.707-1.707-0.853-4.267,0.853-5.973l21.333-13.653 c1.707-1.707,4.267-0.853,5.973,0.853c1.707,1.707,0.853,4.267-0.853,5.973l-21.333,13.653 C204.448,195.543,203.595,195.543,202.742,195.543z M253.088,163.97c-1.707,0-2.56-0.853-3.413-1.707 c-0.853-1.707-0.853-4.267,1.707-5.973l101.547-62.293c1.707-0.853,4.267-0.853,5.973,1.707c0.853,1.707,0.853,4.267-1.707,5.973 L255.648,163.97C254.795,163.117,253.942,163.97,253.088,163.97z M65.355,128.13c-5.973,0-11.093-0.853-17.067-2.56 c-16.213-4.267-30.72-15.36-39.253-29.867c-17.92-30.72-6.827-69.973,23.04-87.04c10.24-5.973,23.04-9.387,34.987-8.533 c1.707,0,3.413,0.853,3.413,2.56c0.853,1.707,0,3.413-0.853,4.267c-16.213,14.507-20.48,39.253-9.387,58.88 c4.267,7.68,10.24,13.653,17.92,17.92c1.707,0.853,2.56,3.413,1.707,5.973c-0.853,1.707-3.413,2.56-5.973,1.707 c-8.533-5.12-16.213-11.947-21.333-20.48c-11.093-19.627-9.387-43.52,4.267-61.44c-6.827,0.853-14.507,3.413-20.48,6.827 C9.888,31.703,0.501,65.836,15.862,92.29c7.68,12.8,19.627,22.187,33.28,25.6c14.507,3.413,29.013,1.707,41.813-5.12 c9.387-5.12,17.067-12.8,21.333-23.04c0.853-1.707,3.413-2.56,5.973-1.707c1.707,0.853,2.56,3.413,1.707,5.973 c-5.973,11.093-14.507,20.48-24.747,26.453C87.542,125.57,76.448,128.13,65.355,128.13z M244.555,68.396 c-2.56,0-4.267-1.707-4.267-4.267v-4.267h-4.267c-2.56,0-4.267-1.707-4.267-4.267c0-2.56,1.707-4.267,4.267-4.267h4.267v-4.267 c0-2.56,1.707-4.267,4.267-4.267s4.267,1.707,4.267,4.267v4.267h4.267c2.56,0,4.267,1.707,4.267,4.267 c0,2.56-1.707,4.267-4.267,4.267h-4.267v4.267C248.821,66.69,247.115,68.396,244.555,68.396z M159.221,42.796 c-2.56,0-4.267-1.707-4.267-4.267v-12.8h-12.8c-2.56,0-4.267-1.707-4.267-4.267s1.707-4.267,4.267-4.267h12.8v-12.8 c0-2.56,1.707-4.267,4.267-4.267c2.56,0,4.267,1.707,4.267,4.267v12.8h12.8c2.56,0,4.267,1.707,4.267,4.267 s-1.707,4.267-4.267,4.267h-12.8v12.8C163.488,41.09,161.782,42.796,159.221,42.796z"/> </g>
</svg>